# xmcd
#
# Track frame offsets:
#	150
#	10330
#	22154
#	43192
#	54490
#	70752
#	89729
#	102657
#	118857
#	131619
#	147129
#	166658
#
# Disc length: 2367 seconds
#
# Revision: 1
# Processed by: cddbd v1.5.2PL0 Copyright (c) Steve Scherf et al.
# Submitted via: audiograbber 1.83.01
#
DISCID=ac093d0c
DTITLE=Nataly Dawn  - How I Knew Her 
DYEAR=2013
DGENRE=Alternative Rock
TTITLE0=Araceli
TTITLE1=Leslie
TTITLE2=How I Knew Her
TTITLE3=Back To The Barracks
TTITLE4=Long Running Joke
TTITLE5=Counting Down
TTITLE6=Caroline
TTITLE7=Please Don't Scream
TTITLE8=Still A Believer
TTITLE9=Even Steven
TTITLE10=Why Did You Marry
TTITLE11=I Just Wanted You To Get Old
EXTD=
EXTT0=
EXTT1=
EXTT2=
EXTT3=
EXTT4=
EXTT5=
EXTT6=
EXTT7=
EXTT8=
EXTT9=
EXTT10=
EXTT11=
PLAYORDER=
